<svg width="96" height="34" viewBox="0 0 96 34" fill="none" xmlns="http://www.w3.org/2000/svg">
<rect width="96" height="34" rx="17" fill="#333333"/>
<path d="M22 20L25 17M25 17L22 14M25 17H14M19 12.2486V12.2002C19 11.0801 19 10.5196 19.218 10.0918C19.4097 9.71547 19.7155 9.40973 20.0918 9.21799C20.5196 9 21.0801 9 22.2002 9H26.8002C27.9203 9 28.4796 9 28.9074 9.21799C29.2837 9.40973 29.5905 9.71547 29.7822 10.0918C30 10.5192 30 11.079 30 12.1969V21.8036C30 22.9215 30 23.4805 29.7822 23.9079C29.5905 24.2842 29.2837 24.5905 28.9074 24.7822C28.48 25 27.921 25 26.8031 25H22.1969C21.079 25 20.5192 25 20.0918 24.7822C19.7155 24.5905 19.4097 24.2839 19.218 23.9076C19 23.4798 19 22.9201 19 21.8V21.75" stroke="white" stroke-width="1.5" stroke-linecap="round" stroke-linejoin="round"/>
<path d="M41.68 22.5V11.3H43.28V21.108H49.344V22.5H41.68ZM54.4786 22.596C53.6253 22.596 52.868 22.4093 52.2066 22.036C51.5453 21.6627 51.0226 21.1507 50.6386 20.5C50.2546 19.8387 50.0626 19.092 50.0626 18.26C50.0626 17.4173 50.2546 16.6707 50.6386 16.02C51.0226 15.3693 51.5453 14.8627 52.2066 14.5C52.868 14.1267 53.6253 13.94 54.4786 13.94C55.3213 13.94 56.0733 14.1267 56.7346 14.5C57.4066 14.8627 57.9293 15.3693 58.3026 16.02C58.6866 16.66 58.8786 17.4067 58.8786 18.26C58.8786 19.1027 58.6866 19.8493 58.3026 20.5C57.9293 21.1507 57.4066 21.6627 56.7346 22.036C56.0733 22.4093 55.3213 22.596 54.4786 22.596ZM54.4786 21.252C55.0226 21.252 55.508 21.1293 55.9346 20.884C56.372 20.6387 56.7133 20.292 56.9586 19.844C57.204 19.3853 57.3266 18.8573 57.3266 18.26C57.3266 17.652 57.204 17.1293 56.9586 16.692C56.7133 16.244 56.372 15.8973 55.9346 15.652C55.508 15.4067 55.0226 15.284 54.4786 15.284C53.9346 15.284 53.4493 15.4067 53.0226 15.652C52.596 15.8973 52.2546 16.244 51.9986 16.692C51.7426 17.1293 51.6146 17.652 51.6146 18.26C51.6146 18.8573 51.7426 19.3853 51.9986 19.844C52.2546 20.292 52.596 20.6387 53.0226 20.884C53.4493 21.1293 53.9346 21.252 54.4786 21.252ZM64.7149 25.7C63.9362 25.7 63.1789 25.588 62.4429 25.364C61.7175 25.1507 61.1255 24.8413 60.6669 24.436L61.4029 23.252C61.7975 23.5933 62.2829 23.86 62.8589 24.052C63.4349 24.2547 64.0375 24.356 64.6669 24.356C65.6695 24.356 66.4055 24.1213 66.8749 23.652C67.3442 23.1827 67.5789 22.468 67.5789 21.508V19.716L67.7389 18.036L67.6589 16.34V14.02H69.1149V21.348C69.1149 22.8413 68.7415 23.94 67.9949 24.644C67.2482 25.348 66.1549 25.7 64.7149 25.7ZM64.5229 22.148C63.7015 22.148 62.9655 21.9773 62.3149 21.636C61.6749 21.284 61.1629 20.7987 60.7789 20.18C60.4055 19.5613 60.2189 18.8467 60.2189 18.036C60.2189 17.2147 60.4055 16.5 60.7789 15.892C61.1629 15.2733 61.6749 14.7933 62.3149 14.452C62.9655 14.1107 63.7015 13.94 64.5229 13.94C65.2482 13.94 65.9095 14.0893 66.5069 14.388C67.1042 14.676 67.5789 15.124 67.9309 15.732C68.2935 16.34 68.4749 17.108 68.4749 18.036C68.4749 18.9533 68.2935 19.716 67.9309 20.324C67.5789 20.932 67.1042 21.3907 66.5069 21.7C65.9095 21.9987 65.2482 22.148 64.5229 22.148ZM64.6989 20.804C65.2642 20.804 65.7655 20.6867 66.2029 20.452C66.6402 20.2173 66.9815 19.892 67.2269 19.476C67.4829 19.06 67.6109 18.58 67.6109 18.036C67.6109 17.492 67.4829 17.012 67.2269 16.596C66.9815 16.18 66.6402 15.86 66.2029 15.636C65.7655 15.4013 65.2642 15.284 64.6989 15.284C64.1335 15.284 63.6269 15.4013 63.1789 15.636C62.7415 15.86 62.3949 16.18 62.1389 16.596C61.8935 17.012 61.7709 17.492 61.7709 18.036C61.7709 18.58 61.8935 19.06 62.1389 19.476C62.3949 19.892 62.7415 20.2173 63.1789 20.452C63.6269 20.6867 64.1335 20.804 64.6989 20.804ZM72.0498 22.5V14.02H73.5858V22.5H72.0498ZM72.8178 12.388C72.5191 12.388 72.2684 12.292 72.0658 12.1C71.8738 11.908 71.7778 11.6733 71.7778 11.396C71.7778 11.108 71.8738 10.868 72.0658 10.676C72.2684 10.484 72.5191 10.388 72.8178 10.388C73.1164 10.388 73.3618 10.484 73.5538 10.676C73.7564 10.8573 73.8578 11.0867 73.8578 11.364C73.8578 11.652 73.7618 11.8973 73.5698 12.1C73.3778 12.292 73.1271 12.388 72.8178 12.388ZM81.0465 13.94C81.7398 13.94 82.3478 14.0733 82.8705 14.34C83.4038 14.6067 83.8198 15.012 84.1185 15.556C84.4172 16.1 84.5665 16.788 84.5665 17.62V22.5H83.0305V17.796C83.0305 16.9747 82.8278 16.356 82.4225 15.94C82.0278 15.524 81.4678 15.316 80.7425 15.316C80.1985 15.316 79.7238 15.4227 79.3185 15.636C78.9132 15.8493 78.5985 16.164 78.3745 16.58C78.1612 16.996 78.0545 17.5133 78.0545 18.132V22.5H76.5185V14.02H77.9905V16.308L77.7505 15.7C78.0278 15.1453 78.4545 14.7133 79.0305 14.404C79.6065 14.0947 80.2785 13.94 81.0465 13.94Z" fill="white"/>
</svg>
