<svg width="30" height="34" viewBox="0 0 30 34" fill="none" xmlns="http://www.w3.org/2000/svg">
<g clip-path="url(#clip0_4358_466)">
<path d="M15 10.3334V8.66675M15 23.6667V25.3334M10.3452 12.3453L9.16669 11.1667M19.7734 21.7734L20.9519 22.952M8.33335 17.0001H6.66669M21.6667 17.0001H23.3334M19.7738 12.3453L20.9523 11.1667M10.3456 21.7734L9.16709 22.952M15 21.1667C12.6988 21.1667 10.8334 19.3013 10.8334 17.0001C10.8334 14.6989 12.6988 12.8334 15 12.8334C17.3012 12.8334 19.1667 14.6989 19.1667 17.0001C19.1667 19.3013 17.3012 21.1667 15 21.1667Z" stroke="white" stroke-width="1.5" stroke-linecap="round" stroke-linejoin="round"/>
</g>
<defs>
<clipPath id="clip0_4358_466">
<rect width="20" height="20" fill="white" transform="translate(5 7)"/>
</clipPath>
</defs>
</svg>
